<svg width="161" height="49" viewBox="0 0 161 49" fill="none" xmlns="http://www.w3.org/2000/svg">
<path d="M76.8035 24.5617C83.1478 24.5617 87.5757 22.1496 89.6244 17.5235L83.9409 15.7391C82.6522 18.6139 80.24 19.8035 76.8035 19.8035C71.6487 19.8035 68.807 16.9617 68.807 12.4348C68.807 7.90782 71.5826 5.16521 76.7704 5.16521C80.3391 5.16521 82.6852 6.42087 83.9409 9.09739L89.5913 7.24695C87.4435 2.81913 83.1148 0.406954 76.7704 0.406954C68.08 0.406954 62.8261 5.13217 62.8261 12.5009C62.8261 19.8035 68.08 24.5617 76.8035 24.5617ZM95.852 24V15.0452H106.889V24H112.869V0.968694H106.889V9.75826H95.852V0.968694H89.8711V24H95.852ZM133.249 24V19.6383H120.197V14.6157H132.357V10.1878H120.197V5.33043H133.249V0.968694H114.216V24H133.249ZM140.218 24V15.4417H152.841V11.047H140.218V5.33043H154.592V0.968694H134.237V24H140.218ZM81.2643 47V42.0765H69.7322V23.9687H63.7513V47H81.2643ZM87.2377 47V23.9687H81.1908V47H87.2377ZM105.611 38.1774L94.1451 23.9687H88.6269V47H94.6077V32.7252L106.074 47H111.625V23.9687H105.611V38.1774ZM127.015 32.9235L137.986 23.9687H129.626L118.953 33.2209V23.9687H112.972V47H118.953V39.4991L122.786 36.393L130.848 47H138.151L127.015 32.9235Z" fill="black"/>
<g clip-path="url(#clip0_17_67)">
<path d="M16 46H58" stroke="black" stroke-width="1.83575"/>
<path d="M18 46.5V46.5C20.2002 22.1327 55.7998 22.1327 58 46.5V46.5" stroke="black" stroke-width="2"/>
<path d="M42 14V14C38.8101 17.3072 44.9472 23.2682 40.361 22.9873V22.9873" stroke="black" stroke-width="1.37681"/>
<path d="M38 10C37.9113 10.1107 37.823 10.2209 37.735 10.3306C34.1423 14.8111 41.7606 23.4039 36.0331 22.9817V22.9817" stroke="black" stroke-width="1.37681"/>
</g>
<defs>
<clipPath id="clip0_17_67">
<rect width="74.6811" height="47.7415" fill="white" transform="translate(0 1)"/>
</clipPath>
</defs>
</svg>
